<svg width="524" height="478" viewBox="0 0 524 478" fill="none" xmlns="http://www.w3.org/2000/svg">
<path d="M306.148 47.3313C349.307 49.4499 391.182 85.9514 420.606 126.582C450.029 167.212 466.856 211.752 465.617 254.329C464.233 296.687 444.272 336.787 413.851 354.392C383.429 371.997 342.327 367.251 309.849 365.022C277.738 362.867 254.616 363.302 224.413 359.251C194.21 355.2 157.144 346.517 127.748 319.788C98.5716 292.913 76.9184 247.772 85.6047 209.755C94.6566 171.813 133.757 140.556 175.785 108.942C217.812 77.3281 262.988 45.2127 306.148 47.3313Z" fill="white" fill-opacity="0.08"/>
<path d="M471.295 257.943C469.774 257.727 468.324 257.161 467.059 256.289C465.794 255.417 464.749 254.263 464.007 252.918C463.264 251.573 462.843 250.074 462.779 248.54C462.714 247.005 463.007 245.476 463.634 244.073C464.261 242.671 465.205 241.433 466.392 240.458C467.579 239.483 468.976 238.797 470.474 238.453C471.971 238.11 473.528 238.119 475.021 238.481C476.514 238.842 477.903 239.545 479.078 240.534L476.457 244.923L480.647 242.198C482.215 244.296 482.886 246.931 482.512 249.523C482.385 250.433 482.13 251.321 481.753 252.159C480.876 254.13 479.38 255.76 477.493 256.804C475.606 257.847 473.43 258.247 471.295 257.943Z" fill="#008A5A"/>
<path d="M432.892 304.575C435.687 301.144 434.237 296.01 432.193 292.085C430.15 288.16 427.543 283.985 428.442 279.652C429.733 273.425 437.066 271.001 442.995 268.7C447.394 266.992 451.575 264.768 455.45 262.076C457.004 260.996 458.532 259.816 459.616 258.266C461.177 256.033 461.676 253.249 462.118 250.56C463.587 241.603 464.845 232.615 465.891 223.595" stroke="#374554" stroke-miterlimit="10"/>
<path d="M471.552 256.591C470.032 256.375 468.582 255.808 467.317 254.936C466.052 254.064 465.007 252.911 464.264 251.566C463.521 250.221 463.101 248.722 463.037 247.187C462.972 245.653 463.265 244.124 463.892 242.721C464.519 241.319 465.463 240.081 466.65 239.106C467.837 238.131 469.234 237.444 470.731 237.101C472.229 236.758 473.785 236.767 475.279 237.128C476.772 237.489 478.161 238.192 479.336 239.182L476.715 243.57L480.905 240.846C482.473 242.944 483.144 245.579 482.77 248.171C482.643 249.081 482.388 249.969 482.011 250.807C481.134 252.777 479.638 254.408 477.751 255.451C475.864 256.495 473.688 256.895 471.552 256.591V256.591Z" stroke="#374554" stroke-miterlimit="10"/>
<path d="M475.709 226.831C475.945 225.185 475.762 223.506 475.178 221.949C474.594 220.392 473.628 219.007 472.368 217.922L469.364 221.821L470.426 216.61C468.556 215.649 466.429 215.306 464.352 215.632C462.275 215.959 460.355 216.936 458.87 218.425C457.385 219.913 456.411 221.835 456.089 223.913C455.767 225.991 456.114 228.117 457.08 229.985C458.045 231.853 459.579 233.365 461.461 234.305C463.342 235.244 465.473 235.561 467.546 235.21C469.619 234.859 471.527 233.858 472.994 232.352C474.462 230.846 475.412 228.913 475.709 226.831V226.831Z" fill="#008A5A"/>
<path d="M476.053 225.028C476.289 223.382 476.106 221.703 475.522 220.146C474.938 218.589 473.972 217.204 472.712 216.119L469.708 220.018L470.77 214.807C468.9 213.846 466.773 213.503 464.696 213.83C462.618 214.156 460.699 215.134 459.214 216.622C457.728 218.11 456.755 220.032 456.433 222.11C456.111 224.188 456.458 226.314 457.424 228.182C458.389 230.05 459.923 231.563 461.805 232.502C463.686 233.441 465.817 233.758 467.89 233.407C469.963 233.056 471.871 232.055 473.338 230.549C474.806 229.043 475.756 227.11 476.053 225.028V225.028Z" stroke="#374554" stroke-miterlimit="10"/>
<path d="M444.485 269.606C442.074 269.261 439.874 268.042 438.304 266.18C436.734 264.318 435.904 261.943 435.972 259.508C436.041 257.074 437.003 254.749 438.675 252.978C440.347 251.207 442.612 250.113 445.039 249.905L444.223 253.909L447.261 249.964C447.27 249.964 447.279 249.965 447.288 249.967C449.892 250.339 452.242 251.73 453.821 253.834C455.399 255.938 456.077 258.584 455.706 261.188C455.334 263.792 453.943 266.142 451.839 267.721C449.735 269.299 447.089 269.977 444.485 269.606Z" fill="#008A5A"/>
<path d="M444.904 267.817C442.493 267.473 440.292 266.254 438.722 264.391C437.152 262.529 436.322 260.154 436.391 257.72C436.459 255.285 437.421 252.961 439.093 251.19C440.766 249.418 443.031 248.325 445.458 248.116L444.642 252.121L447.68 248.175C447.689 248.176 447.698 248.177 447.707 248.179C448.996 248.363 450.237 248.799 451.358 249.462C452.479 250.126 453.458 251.004 454.239 252.046C455.021 253.087 455.59 254.273 455.913 255.535C456.237 256.797 456.309 258.11 456.125 259.399C455.94 260.689 455.504 261.929 454.841 263.05C454.177 264.171 453.299 265.15 452.258 265.932C451.216 266.714 450.03 267.283 448.768 267.606C447.506 267.929 446.193 268.001 444.904 267.817V267.817Z" stroke="#374554" stroke-miterlimit="10"/>
<path d="M445.849 289C444.447 290.791 442.473 292.047 440.256 292.555C438.039 293.064 435.715 292.795 433.673 291.793C431.631 290.791 429.995 289.118 429.041 287.053C428.086 284.989 427.87 282.659 428.43 280.454C428.989 278.25 430.289 276.304 432.113 274.945C433.936 273.585 436.172 272.894 438.444 272.986C440.717 273.079 442.888 273.951 444.595 275.455C446.301 276.958 447.438 279.003 447.816 281.246L440.787 285.037L447.776 284.762C447.483 286.309 446.821 287.762 445.849 289Z" fill="#008A5A"/>
<path d="M446.107 287.648C444.705 289.439 442.731 290.695 440.514 291.203C438.297 291.712 435.973 291.443 433.931 290.441C431.889 289.439 430.253 287.766 429.299 285.701C428.344 283.637 428.128 281.307 428.688 279.102C429.247 276.897 430.547 274.952 432.371 273.592C434.194 272.233 436.429 271.541 438.702 271.634C440.975 271.727 443.146 272.599 444.852 274.102C446.559 275.606 447.696 277.651 448.074 279.894L441.045 283.685L448.034 283.41C447.74 284.957 447.079 286.41 446.107 287.648V287.648Z" stroke="#374554" stroke-miterlimit="10"/>
<path d="M329.299 356.953C352.068 356.953 370.526 336.02 370.526 310.198C370.526 284.376 352.068 263.443 329.299 263.443C306.531 263.443 288.073 284.376 288.073 310.198C288.073 336.02 306.531 356.953 329.299 356.953Z" fill="#192633"/>
<path d="M382.219 154.62C372.312 158.943 361.509 160.814 350.725 160.076C353.496 158.1 355.273 154.927 355.989 151.601C356.706 148.274 356.433 144.798 355.693 141.477C355.558 141.098 355.566 140.682 355.715 140.308C355.867 140.121 356.059 139.969 356.277 139.866C356.494 139.762 356.733 139.708 356.974 139.709C361.15 139.128 373.112 136.604 376.292 140.179C377.799 141.873 377.222 145.163 377.772 147.233C377.999 148.087 380.906 155.195 382.219 154.62Z" fill="#FBBEBE"/>
<path opacity="0.1" d="M382.219 154.62C372.312 158.943 361.509 160.814 350.725 160.076C353.496 158.1 355.273 154.927 355.989 151.601C356.706 148.274 356.433 144.798 355.693 141.477C355.558 141.098 355.566 140.682 355.715 140.308C355.867 140.121 356.059 139.969 356.277 139.866C356.494 139.762 356.733 139.708 356.974 139.709C361.15 139.128 373.112 136.604 376.292 140.179C377.799 141.873 377.222 145.163 377.772 147.233C377.999 148.087 380.906 155.195 382.219 154.62Z" fill="black"/>
<path d="M347.411 225.6L285.452 227.506C285.452 227.506 230.642 280.886 275.919 297.091C275.919 297.091 331.683 306.146 345.028 295.661C345.028 295.661 361.709 229.889 347.411 225.6ZM344.551 243.234L278.303 247.524C278.303 247.524 283.069 231.319 302.133 231.319C321.197 231.319 342.645 227.03 344.551 237.038C346.457 247.047 344.551 243.234 344.551 243.234Z" fill="#374554"/>
<path d="M298.565 217.049C295.475 216.576 292.115 216.303 289.408 217.867C288.507 218.431 287.67 219.091 286.913 219.836C285.824 220.835 284.744 221.844 283.672 222.861C282.888 223.605 282.068 224.425 281.867 225.487C281.453 227.671 283.977 229.431 286.199 229.345C288.421 229.26 290.414 228.039 292.513 227.304C296.738 225.822 312.28 228.355 313.129 223.804C314.209 218.017 302.002 217.595 298.565 217.049Z" fill="#FBBEBE"/>
<path d="M327.529 213.395C323.488 215.447 319.088 216.697 314.571 217.074C313.866 217.086 313.17 217.234 312.521 217.51C312.128 217.752 311.828 218.118 311.667 218.55C310.079 221.874 309.098 225.455 308.77 229.124C308.727 229.3 308.736 229.485 308.795 229.656C308.854 229.827 308.962 229.978 309.104 230.09C309.539 230.307 310.02 230.415 310.505 230.404C317.92 230.875 325.36 231.128 332.824 231.162C333.153 231.188 333.485 231.143 333.795 231.03C333.903 230.973 333.998 230.894 334.075 230.799C334.152 230.704 334.209 230.595 334.242 230.478C335.993 226.123 336.819 221.452 336.667 216.761C336.472 211.236 334.854 209.506 327.529 213.395Z" fill="#D7E5F2"/>
<path opacity="0.1" d="M327.529 213.395C323.488 215.447 319.088 216.697 314.571 217.074C313.866 217.086 313.17 217.234 312.521 217.51C312.128 217.752 311.828 218.118 311.667 218.55C310.079 221.874 309.098 225.455 308.77 229.124C308.727 229.3 308.736 229.485 308.795 229.656C308.854 229.827 308.962 229.978 309.104 230.09C309.539 230.307 310.02 230.415 310.505 230.404C317.92 230.875 325.36 231.128 332.824 231.162C333.153 231.188 333.485 231.143 333.795 231.03C333.903 230.973 333.998 230.894 334.075 230.799C334.152 230.704 334.209 230.595 334.242 230.478C335.993 226.123 336.819 221.452 336.667 216.761C336.472 211.236 334.854 209.506 327.529 213.395Z" fill="black"/>
<path d="M410.8 263.252L329.3 260.392L348.364 179.845C348.364 179.845 424.621 174.126 422.715 193.667C420.808 213.208 410.8 263.252 410.8 263.252Z" fill="#192633"/>
<path d="M332.121 301.755C332.121 301.755 283.069 310.436 265.434 284.699C247.8 258.962 332.159 272.784 332.159 272.784L339.308 292.325L332.121 301.755Z" fill="#192633"/>
<path d="M317.384 411C329.756 411 339.785 400.971 339.785 388.6C339.785 376.228 329.756 366.199 317.384 366.199C305.013 366.199 294.984 376.228 294.984 388.6C294.984 400.971 305.013 411 317.384 411Z" fill="#192633"/>
<path d="M319.529 404.804C327.294 404.804 333.589 397.549 333.589 388.6C333.589 379.65 327.294 372.395 319.529 372.395C311.764 372.395 305.469 379.65 305.469 388.6C305.469 397.549 311.764 404.804 319.529 404.804Z" fill="#374554"/>
<path d="M439.872 177.462C439.872 177.462 421.285 166.977 420.332 191.761L404.604 307.1H411.276L429.387 183.658C429.387 183.658 438.443 185.088 439.872 185.088C441.302 185.088 439.872 177.462 439.872 177.462Z" fill="#374554"/>
<path d="M458.394 190.188C458.224 190.801 457.925 191.369 457.517 191.857C457.109 192.344 456.602 192.738 456.029 193.013C455.457 193.288 454.832 193.438 454.197 193.452C453.562 193.466 452.931 193.344 452.347 193.094L430.784 183.875L434.696 175.26L455.947 184.939C456.913 185.379 457.69 186.15 458.139 187.112C458.588 188.074 458.678 189.165 458.394 190.188Z" fill="#192633"/>
<path d="M327.393 298.997C327.393 298.997 293.077 295.184 283.545 328.07C274.013 360.956 274.966 386.217 266.864 384.31C258.762 382.404 241.604 375.731 241.604 375.731L243.033 385.74C243.033 385.74 273.06 400.992 277.826 384.787C282.592 368.582 285.452 309.006 312.618 310.436C339.785 311.866 344.551 309.006 344.551 309.006L327.393 298.997Z" fill="#374554"/>
<path d="M262.098 283.269C262.098 283.269 235.408 286.606 224.922 306.147C214.437 325.687 209.194 360.957 209.194 360.957H219.203C219.203 360.957 224.922 290.895 254.949 294.708L262.098 283.269Z" fill="#374554"/>
<path d="M243.987 392.413L201.569 366.199C201.569 366.199 199.185 356.667 226.352 352.854C226.352 352.854 277.715 370.817 272.766 377.564C267.817 384.31 251.136 394.796 243.987 392.413Z" fill="#192633"/>
<path d="M309.759 307.1V362.863H315.955V306.146L309.759 307.1Z" fill="#374554"/>
<path d="M318.814 341.415C318.814 341.415 330.729 388.123 323.104 394.796C323.104 394.796 313.095 365.246 305.469 369.059L307.852 341.415H318.814Z" fill="#192633"/>
<path d="M365.045 146.959C375.311 146.959 383.633 138.637 383.633 128.372C383.633 118.106 375.311 109.784 365.045 109.784C354.779 109.784 346.457 118.106 346.457 128.372C346.457 138.637 354.779 146.959 365.045 146.959Z" fill="#FBBEBE"/>
<path d="M361.53 156.544C369.11 157.832 375.661 149.019 383.249 150.258C384.9 150.596 386.479 151.218 387.917 152.095C393.507 155.257 398.377 159.548 402.22 164.694C406.062 169.84 408.792 175.729 410.236 181.987C411.093 185.81 411.424 189.955 409.81 193.525C408.952 195.422 407.594 197.043 406.236 198.622C401.187 204.494 395.646 210.345 388.442 213.186C387.739 215.624 388.414 218.262 389.258 220.655C392.781 230.644 387.179 241.409 386.893 251.997C386.845 253.808 386.899 255.792 385.766 257.206C384.509 258.776 382.265 259.055 380.257 259.168C361.853 260.205 343.474 257.382 325.256 254.567C324.779 254.534 324.319 254.378 323.92 254.114C323.321 253.636 323.23 252.781 323.103 252.025C322.427 248.025 325.98 244.781 324.295 241.089C321.399 234.744 327.716 227.805 329.538 221.072C331.36 214.339 332.077 213.155 333.351 206.297C333.827 203.733 332.455 196.003 332.874 193.429C334.242 185.02 333.208 175.443 337.64 168.168C340.303 163.798 339.612 160.399 344.365 158.499C349.379 156.494 356.165 157.169 361.53 156.544Z" fill="#D7E5F2"/>
<path d="M277.585 267.394C272.036 268.465 266.145 269.485 261.874 273.187C259.266 275.447 257.513 278.512 255.811 281.514L238.438 312.144C233.14 321.485 227.839 330.832 223.035 340.437C222.615 341.136 222.369 341.925 222.317 342.738C222.336 343.884 223.106 344.87 223.895 345.702C226.636 348.543 230.002 350.704 233.726 352.014C237.451 353.323 241.429 353.744 245.345 353.244C246.54 347.056 252.421 342.967 255.304 337.363C256.888 334.284 257.524 330.822 258.547 327.513C262.36 315.174 271.413 305.266 280.203 295.802C284.356 291.33 288.609 286.78 293.961 283.845C300.24 280.402 307.525 279.45 314.542 278.02C321.559 276.59 328.824 274.422 333.789 269.262C335.897 267.039 337.484 264.375 338.435 261.464C339.387 258.553 339.68 255.466 339.292 252.428C334.797 252.114 329.794 251.529 325.458 252.975C320.422 254.654 315.551 256.949 310.508 258.664C299.746 262.324 288.746 265.241 277.585 267.394Z" fill="#696880"/>
<path opacity="0.1" d="M277.585 267.394C272.036 268.465 266.145 269.485 261.874 273.187C259.266 275.447 257.513 278.512 255.811 281.514L238.438 312.144C233.14 321.485 227.839 330.832 223.035 340.437C222.615 341.136 222.369 341.925 222.317 342.738C222.336 343.884 223.106 344.87 223.895 345.702C226.636 348.543 230.002 350.704 233.726 352.014C237.451 353.323 241.429 353.744 245.345 353.244C246.54 347.056 252.421 342.967 255.304 337.363C256.888 334.284 257.524 330.822 258.547 327.513C262.36 315.174 271.413 305.266 280.203 295.802C284.356 291.33 288.609 286.78 293.961 283.845C300.24 280.402 307.525 279.45 314.542 278.02C321.559 276.59 328.824 274.422 333.789 269.262C335.897 267.039 337.484 264.375 338.435 261.464C339.387 258.553 339.68 255.466 339.292 252.428C334.797 252.114 329.794 251.529 325.458 252.975C320.422 254.654 315.551 256.949 310.508 258.664C299.746 262.324 288.746 265.241 277.585 267.394Z" fill="black"/>
<path d="M202.687 364.521C202.068 364.964 201.593 365.578 201.319 366.288C200.688 368.438 203.378 369.952 205.531 370.572C210.367 371.964 215.528 373.358 220.352 371.924C223.31 371.044 225.885 369.16 228.824 368.218C233.186 366.82 237.911 367.614 242.42 368.419C243.427 362.75 242.75 356.91 240.471 351.623C239.024 348.285 233.233 346.661 229.785 346.515C226.016 346.355 224.707 349.135 222.532 351.695C217.233 357.929 208.792 359.374 202.687 364.521Z" fill="#374554"/>
<path d="M281.126 276.524C278.46 277.585 275.725 278.689 273.633 280.654C271.425 282.728 270.132 285.574 268.954 288.365C265.47 296.615 262.504 305.074 260.074 313.693C258.846 318.048 257.751 322.454 256.097 326.665C252.795 335.071 247.193 343.121 247.719 352.137C247.716 353.232 248.011 354.308 248.572 355.248C249.319 356.334 250.592 356.91 251.801 357.434L258.138 360.186C261.539 361.663 265.689 363.083 268.727 360.958C270.76 359.536 271.573 356.957 272.186 354.553C274.401 345.871 275.77 336.853 279.739 328.819C284.224 319.74 291.809 312.402 295.822 303.104C296.39 301.788 296.929 300.376 298.046 299.478C298.968 298.736 300.164 298.447 301.319 298.184C325.121 292.764 349.461 289.8 373.072 283.602C376.429 282.721 379.941 281.675 382.336 279.164C385.656 275.681 385.952 270.387 386.059 265.576C386.125 262.561 386.111 259.286 384.275 256.895C382.203 254.198 378.489 253.486 375.108 253.13C362.137 251.766 350.174 253.915 337.4 255.489C325.712 256.93 313.94 263.527 303.036 267.837C295.73 270.725 288.426 273.621 281.126 276.524Z" fill="#696880"/>
<path d="M251.798 362.687C250.016 366.92 248.092 371.341 244.477 374.173C242.967 375.356 241.013 376.541 240.953 378.458C240.889 380.487 243.02 381.826 244.929 382.515C249.792 384.27 255.327 384.645 260.072 382.592C263.317 381.188 265.994 378.761 268.605 376.377C269.392 375.659 270.206 374.901 270.575 373.902C270.826 373.06 270.902 372.175 270.796 371.303C270.483 366.008 269.539 360.769 267.983 355.699C267.863 355.3 257.608 354.022 256.698 354.259C253.835 355.007 252.903 360.065 251.798 362.687Z" fill="#374554"/>
<path d="M411.276 239.898L349.317 241.804C349.317 241.804 294.507 295.184 339.785 311.389C339.785 311.389 395.548 320.445 408.893 309.959C408.893 309.959 425.574 244.187 411.276 239.898ZM408.416 257.532L342.168 261.822C342.168 261.822 346.934 245.617 365.998 245.617C385.063 245.617 406.51 241.328 408.416 251.337C410.323 261.345 408.416 257.532 408.416 257.532Z" fill="#374554"/>
<path d="M397.216 411C431.567 411 459.414 379.419 459.414 340.462C459.414 301.505 431.567 269.924 397.216 269.924C362.866 269.924 335.019 301.505 335.019 340.462C335.019 379.419 362.866 411 397.216 411Z" fill="#192633"/>
<path d="M400.076 392.889C426.003 392.889 447.022 369.417 447.022 340.462C447.022 311.508 426.003 288.035 400.076 288.035C374.148 288.035 353.13 311.508 353.13 340.462C353.13 369.417 374.148 392.889 400.076 392.889Z" fill="#374554"/>
<path d="M412.229 339.747C412.228 338.833 412.137 337.92 411.957 337.024L447.022 319.491L444.639 314.249L409.218 331.505C408.861 331.137 408.467 330.808 408.041 330.522L408.068 330.528L418.425 278.98L409.264 278.772L403.174 329.5L403.758 329.623C403.285 329.72 402.826 329.877 402.392 330.09L371.758 298.645L367.428 304.717L398.902 333.673C398.113 335.189 397.639 336.849 397.509 338.553L353.13 356.667L352.177 364.293L398.436 344.838C398.868 345.908 399.479 346.896 400.244 347.76L386.016 396.225H391.259L403.202 349.732C403.732 349.903 404.285 349.991 404.842 349.994C405.917 349.985 406.968 349.67 407.871 349.086L432.724 381.927L440.349 376.684L411.23 344.877C411.899 343.25 412.238 341.507 412.229 339.747Z" fill="#192633"/>
<path d="M343.444 116.604C344.284 114.495 346.992 113.623 347.879 111.534C348.832 109.287 347.337 106.429 348.635 104.362C349.943 102.279 352.99 102.523 355.416 102.925C358.28 103.4 361.326 103.72 363.998 102.583C365.186 102.078 366.24 101.306 367.391 100.72C369.22 99.7928 371.257 99.3501 373.306 99.4346C373.768 99.424 374.225 99.5331 374.633 99.7512C375.021 100.031 375.32 100.417 375.494 100.862C376.33 102.673 376.449 104.932 377.962 106.23C378.689 106.854 379.632 107.147 380.502 107.547C382.529 108.525 384.207 110.102 385.31 112.064C386.412 114.026 386.886 116.279 386.668 118.519C386.468 119.557 386.343 120.607 386.293 121.662C386.352 123.98 387.867 126.295 387.093 128.48C386.518 130.104 384.835 131.066 383.186 131.567C382.717 131.757 382.198 131.784 381.712 131.641C380.866 131.299 380.697 130.212 380.427 129.34C380.045 128.199 379.309 127.209 378.325 126.516C377.341 125.822 376.161 125.462 374.958 125.486C373.035 125.568 371.09 126.648 369.276 126.005C368.385 125.689 367.687 125 366.975 124.379C365.335 122.948 363.396 121.758 361.241 121.453C359.086 121.148 356.699 121.875 355.43 123.643C354.918 124.357 354.607 125.198 354.118 125.928C349.726 132.49 341.631 121.157 343.444 116.604Z" fill="#192633"/>
<path d="M353.348 229.883C352.532 229.777 351.703 229.871 350.932 230.158C350.161 230.445 349.472 230.916 348.924 231.53C344.753 235.33 340.333 239.613 339.577 245.204C339.462 245.713 339.523 246.247 339.75 246.718C340.152 247.375 341.035 247.521 341.805 247.533C343.754 247.553 345.684 247.156 347.467 246.368C349.25 245.581 350.843 244.422 352.142 242.968C352.857 242.157 353.513 241.228 354.494 240.771C355.39 240.437 356.352 240.318 357.303 240.422C359.92 240.508 365.894 241.847 368.175 240.549C370.574 239.185 369.914 234.906 368.794 232.844C366.132 227.94 357.879 229.834 353.348 229.883Z" fill="#FBBEBE"/>
<path d="M411.562 188.705C413.164 193.861 412.226 199.667 414.496 204.565C416.004 207.816 418.838 210.437 419.715 213.911C420.545 217.195 419.434 220.732 417.485 223.502C415.536 226.271 412.823 228.398 410.101 230.413C407.121 232.62 404.027 234.773 400.516 235.967C397.014 237.157 393.261 237.337 389.566 237.506L365.077 238.629L360.567 225.107L376.524 218.857C378.121 218.231 379.748 217.599 381.458 217.472C384.412 217.254 388.014 218.338 389.911 216.063C390.513 215.228 390.896 214.254 391.025 213.232C392.573 205.288 391.226 196.883 393.608 189.149C394.787 185.32 398.189 177.641 402.829 176.965C407.746 176.249 410.45 185.128 411.562 188.705Z" fill="#D7E5F2"/>
<path d="M243.382 189.521C243.083 189.527 242.793 189.629 242.556 189.812C241.852 187.951 240.762 186.755 239.537 186.755C238.312 186.755 237.222 187.951 236.518 189.812C236.28 189.629 235.991 189.527 235.691 189.521C234.3 189.521 233.172 191.874 233.172 194.777H245.902C245.902 191.874 244.774 189.521 243.382 189.521Z" fill="white"/>
<path d="M215.992 92.9478H154.533V91.6811H126.665V92.9478H64.9519C64.4059 92.9478 63.8654 93.0553 63.361 93.2643C62.8566 93.4732 62.3983 93.7794 62.0123 94.1655C61.6262 94.5515 61.32 95.0098 61.1111 95.5142C60.9022 96.0185 60.7946 96.5591 60.7946 97.1051V181.262C60.7946 182.364 61.2326 183.422 62.0123 184.201C62.7919 184.981 63.8493 185.419 64.9519 185.419H215.992C217.095 185.419 218.152 184.981 218.932 184.201C219.711 183.422 220.149 182.364 220.149 181.262V97.1051C220.149 96.5591 220.042 96.0185 219.833 95.5142C219.624 95.0098 219.318 94.5515 218.932 94.1655C218.546 93.7794 218.087 93.4732 217.583 93.2643C217.079 93.0553 216.538 92.9478 215.992 92.9478Z" fill="#374554"/>
<path opacity="0.2" d="M214.574 100.294H66.3695V183.9H214.574V100.294Z" fill="black"/>
<path d="M140.345 98.0147C141.185 98.0147 141.865 97.3342 141.865 96.4947C141.865 95.6551 141.185 94.9746 140.345 94.9746C139.506 94.9746 138.825 95.6551 138.825 96.4947C138.825 97.3342 139.506 98.0147 140.345 98.0147Z" fill="white"/>
<path d="M160.721 131.53V125.345C160.721 124.348 160.525 123.361 160.143 122.441C159.762 121.52 159.203 120.683 158.498 119.978C157.793 119.274 156.957 118.715 156.036 118.333C155.115 117.952 154.128 117.756 153.132 117.756H146.946C146.946 116.921 144.263 116.237 140.853 116.172V108.712C141.923 108.578 142.901 108.04 143.589 107.21C144.276 106.379 144.621 105.318 144.554 104.242C144.486 103.166 144.011 102.156 143.225 101.418C142.439 100.68 141.402 100.269 140.324 100.269C139.245 100.269 138.208 100.68 137.422 101.418C136.636 102.156 136.161 103.166 136.093 104.242C136.026 105.318 136.371 106.379 137.058 107.21C137.746 108.04 138.724 108.578 139.794 108.712V116.172C136.384 116.237 133.701 116.921 133.701 117.756H126.456C125.459 117.756 124.472 117.952 123.552 118.333C122.631 118.715 121.794 119.274 121.089 119.978C120.385 120.683 119.826 121.52 119.444 122.441C119.063 123.361 118.867 124.348 118.867 125.345V131.53C117.989 131.53 117.277 134.495 117.277 138.153C117.277 141.81 117.989 144.775 118.867 144.775V152.021C118.867 153.017 119.063 154.004 119.444 154.925C119.826 155.846 120.385 156.682 121.089 157.387C121.794 158.092 122.631 158.651 123.552 159.032C124.472 159.414 125.459 159.61 126.456 159.61H153.132C154.128 159.61 155.115 159.414 156.036 159.032C156.957 158.651 157.793 158.092 158.498 157.387C159.203 156.682 159.762 155.846 160.143 154.925C160.525 154.004 160.721 153.017 160.721 152.021V144.775C161.599 144.775 162.31 141.81 162.31 138.153C162.31 134.495 161.599 131.53 160.721 131.53Z" fill="white"/>
<path d="M127.976 120.14H151.612C153.396 120.14 155.106 120.848 156.367 122.109C157.628 123.37 158.337 125.081 158.337 126.864V150.501C158.337 152.285 157.628 153.995 156.367 155.256C155.106 156.517 153.396 157.226 151.612 157.226H127.976C126.192 157.226 124.482 156.517 123.22 155.256C121.959 153.995 121.251 152.285 121.251 150.501V126.864C121.251 125.081 121.959 123.37 123.22 122.109C124.482 120.848 126.192 120.14 127.976 120.14Z" fill="#374554"/>
<path d="M131.317 135.636C132.634 135.636 133.701 134.569 133.701 133.252C133.701 131.936 132.634 130.868 131.317 130.868C130 130.868 128.933 131.936 128.933 133.252C128.933 134.569 130 135.636 131.317 135.636Z" fill="white"/>
<path d="M148.271 135.636C149.587 135.636 150.655 134.569 150.655 133.252C150.655 131.936 149.587 130.868 148.271 130.868C146.954 130.868 145.886 131.936 145.886 133.252C145.886 134.569 146.954 135.636 148.271 135.636Z" fill="white"/>
<path d="M224.311 182.379H209.847V181.337C209.847 181.31 209.841 181.283 209.831 181.258C209.82 181.233 209.805 181.21 209.786 181.191C209.767 181.171 209.744 181.156 209.719 181.146C209.694 181.135 209.667 181.13 209.64 181.13H204.681C204.654 181.13 204.627 181.135 204.602 181.146C204.577 181.156 204.554 181.171 204.535 181.191C204.516 181.21 204.5 181.233 204.49 181.258C204.48 181.283 204.474 181.31 204.474 181.337V182.379H201.375V181.337C201.375 181.31 201.369 181.283 201.359 181.258C201.349 181.233 201.333 181.21 201.314 181.191C201.295 181.171 201.272 181.156 201.247 181.146C201.222 181.135 201.195 181.13 201.168 181.13H196.209C196.182 181.13 196.155 181.135 196.13 181.146C196.105 181.156 196.082 181.171 196.063 181.191C196.044 181.21 196.029 181.233 196.018 181.258C196.008 181.283 196.002 181.31 196.002 181.337V182.379H192.903V181.337C192.903 181.31 192.898 181.283 192.887 181.258C192.877 181.233 192.862 181.21 192.842 181.191C192.823 181.171 192.8 181.156 192.775 181.146C192.75 181.135 192.723 181.13 192.696 181.13H187.737C187.71 181.13 187.683 181.135 187.658 181.146C187.633 181.156 187.61 181.171 187.591 181.191C187.572 181.21 187.557 181.233 187.546 181.258C187.536 181.283 187.531 181.31 187.531 181.337V182.379H184.431V181.337C184.431 181.31 184.426 181.283 184.415 181.258C184.405 181.233 184.39 181.21 184.371 181.191C184.351 181.171 184.329 181.156 184.304 181.146C184.279 181.135 184.252 181.13 184.225 181.13H179.265C179.238 181.13 179.211 181.135 179.186 181.146C179.161 181.156 179.138 181.171 179.119 181.191C179.1 181.21 179.085 181.233 179.074 181.258C179.064 181.283 179.059 181.31 179.059 181.337V182.379H175.959V181.337C175.959 181.31 175.954 181.283 175.944 181.258C175.933 181.233 175.918 181.21 175.899 181.191C175.88 181.171 175.857 181.156 175.832 181.146C175.807 181.135 175.78 181.13 175.753 181.13H170.794C170.766 181.13 170.74 181.135 170.715 181.146C170.689 181.156 170.667 181.171 170.647 181.191C170.628 181.21 170.613 181.233 170.603 181.258C170.592 181.283 170.587 181.31 170.587 181.337V182.379H167.488V181.337C167.488 181.31 167.482 181.283 167.472 181.258C167.461 181.233 167.446 181.21 167.427 181.191C167.408 181.171 167.385 181.156 167.36 181.146C167.335 181.135 167.308 181.13 167.281 181.13H162.322C162.295 181.13 162.268 181.135 162.243 181.146C162.218 181.156 162.195 181.171 162.176 181.191C162.156 181.21 162.141 181.233 162.131 181.258C162.12 181.283 162.115 181.31 162.115 181.337V182.379H159.016V181.337C159.016 181.31 159.01 181.283 159 181.258C158.99 181.233 158.974 181.21 158.955 181.191C158.936 181.171 158.913 181.156 158.888 181.146C158.863 181.135 158.836 181.13 158.809 181.13H119.963C119.935 181.13 119.909 181.135 119.884 181.146C119.858 181.156 119.836 181.171 119.817 181.191C119.797 181.21 119.782 181.233 119.772 181.258C119.761 181.283 119.756 181.31 119.756 181.337V182.379H116.657V181.337C116.657 181.31 116.651 181.283 116.641 181.258C116.63 181.233 116.615 181.21 116.596 181.191C116.577 181.171 116.554 181.156 116.529 181.146C116.504 181.135 116.477 181.13 116.45 181.13H111.491C111.464 181.13 111.437 181.135 111.412 181.146C111.387 181.156 111.364 181.171 111.345 181.191C111.326 181.21 111.31 181.233 111.3 181.258C111.29 181.283 111.284 181.31 111.284 181.337V182.379H108.185V181.337C108.185 181.31 108.179 181.283 108.169 181.258C108.159 181.233 108.143 181.21 108.124 181.191C108.105 181.171 108.082 181.156 108.057 181.146C108.032 181.135 108.005 181.13 107.978 181.13H103.019C102.992 181.13 102.965 181.135 102.94 181.146C102.915 181.156 102.892 181.171 102.873 181.191C102.854 181.21 102.838 181.233 102.828 181.258C102.818 181.283 102.812 181.31 102.812 181.337V182.379H99.7129V181.337C99.7129 181.31 99.7076 181.283 99.6972 181.258C99.6868 181.233 99.6716 181.21 99.6524 181.191C99.6332 181.171 99.6104 181.156 99.5854 181.146C99.5603 181.135 99.5334 181.13 99.5063 181.13H94.5472C94.52 181.13 94.4932 181.135 94.4681 181.146C94.443 181.156 94.4202 181.171 94.4011 181.191C94.3819 181.21 94.3667 181.233 94.3563 181.258C94.3459 181.283 94.3405 181.31 94.3405 181.337V182.379H91.2411V181.337C91.2411 181.31 91.2357 181.283 91.2254 181.258C91.215 181.233 91.1998 181.21 91.1806 181.191C91.1614 181.171 91.1386 181.156 91.1135 181.146C91.0885 181.135 91.0616 181.13 91.0345 181.13H86.0753C86.0482 181.13 86.0213 181.135 85.9963 181.146C85.9712 181.156 85.9484 181.171 85.9292 181.191C85.9101 181.21 85.8948 181.233 85.8844 181.258C85.8741 181.283 85.8687 181.31 85.8687 181.337V182.379H82.7693V181.337C82.7693 181.31 82.7639 181.283 82.7535 181.258C82.7432 181.233 82.7279 181.21 82.7087 181.191C82.6896 181.171 82.6668 181.156 82.6417 181.146C82.6166 181.135 82.5898 181.13 82.5626 181.13H77.6035C77.5764 181.13 77.5495 181.135 77.5245 181.146C77.4994 181.156 77.4766 181.171 77.4574 181.191C77.4382 181.21 77.423 181.233 77.4126 181.258C77.4022 181.283 77.3969 181.31 77.3969 181.337V182.379H74.2975V181.337C74.2975 181.31 74.2921 181.283 74.2817 181.258C74.2713 181.233 74.2561 181.21 74.2369 181.191C74.2177 181.171 74.195 181.156 74.1699 181.146C74.1448 181.135 74.118 181.13 74.0908 181.13H69.1317C69.1046 181.13 69.0777 181.135 69.0526 181.146C69.0276 181.156 69.0048 181.171 68.9856 181.191C68.9664 181.21 68.9512 181.233 68.9408 181.258C68.9304 181.283 68.9251 181.31 68.9251 181.337V182.379H59.4201C58.7689 182.379 58.124 182.507 57.5223 182.756C56.9207 183.006 56.374 183.371 55.9135 183.831C55.453 184.292 55.0877 184.839 54.8385 185.44C54.5893 186.042 54.461 186.687 54.461 187.338V189.58C54.461 190.896 54.9835 192.157 55.9135 193.087C56.8435 194.017 58.1049 194.54 59.4201 194.54H224.311C225.626 194.54 226.887 194.017 227.817 193.087C228.747 192.157 229.27 190.896 229.27 189.58V187.338C229.27 186.687 229.142 186.042 228.892 185.44C228.643 184.839 228.278 184.292 227.817 183.831C227.357 183.371 226.81 183.006 226.208 182.756C225.607 182.507 224.962 182.379 224.311 182.379Z" fill="#374554"/>
<path d="M187.907 159.279H89.0397V159.865H187.907V159.279Z" fill="white"/>
<path d="M96.0807 158.985H71.7304C72.5097 149.809 72.5097 140.584 71.7304 131.408H96.0807C94.74 140.853 94.6616 150.06 96.0807 158.985Z" fill="#D0CDE1"/>
<path d="M92.8535 136.982H75.2509V138.156H92.8535V136.982Z" fill="#374554"/>
<path d="M92.8535 140.796H75.2509V141.969H92.8535V140.796Z" fill="#374554"/>
<path d="M92.8535 144.61H75.2509V145.783H92.8535V144.61Z" fill="#374554"/>
<path d="M92.8535 148.424H75.2509V149.597H92.8535V148.424Z" fill="#374554"/>
<path d="M92.8535 152.238H75.2509V153.411H92.8535V152.238Z" fill="#374554"/>
<path d="M144 142C145.105 142 146.031 142.919 145.67 143.963C145.631 144.075 145.589 144.186 145.543 144.296C145.242 145.024 144.8 145.685 144.243 146.243C143.685 146.8 143.024 147.242 142.296 147.543C141.568 147.845 140.788 148 140 148C139.212 148 138.432 147.845 137.704 147.543C136.976 147.242 136.315 146.8 135.757 146.243C135.2 145.685 134.758 145.024 134.457 144.296C134.411 144.186 134.369 144.075 134.33 143.963C133.969 142.919 134.895 142 136 142L140 142H144Z" fill="white"/>
</svg>
